<svg width="220" height="220" viewBox="0 0 220 220" fill="none" xmlns="http://www.w3.org/2000/svg">
<path fill-rule="evenodd" clip-rule="evenodd" d="M35 97.1392C35 70.4923 35 57.169 38.146 52.6867C41.2919 48.2045 53.8198 43.9162 78.8742 35.3399L83.6495 33.7054C96.709 29.2351 103.239 27 110 27C116.761 27 123.291 29.2351 136.35 33.7052L141.126 35.3399L141.127 35.3403C166.181 43.9165 178.708 48.2046 181.854 52.6867C185 57.169 185 70.4923 185 97.1392V110.262C185 157.245 149.675 180.046 127.512 189.727L127.51 189.728C121.499 192.354 118.493 193.667 110 193.667C101.507 193.667 98.5008 192.354 92.4903 189.729L92.488 189.727C70.3247 180.046 35 157.245 35 110.262V97.1392ZM110 137.833C125.188 137.833 137.5 125.522 137.5 110.333C137.5 95.1455 125.188 82.8333 110 82.8333C94.8118 82.8333 82.5 95.1455 82.5 110.333C82.5 125.522 94.8118 137.833 110 137.833ZM147.5 82.8333C153.023 82.8333 157.5 78.3563 157.5 72.8333C157.5 67.3105 153.023 62.8333 147.5 62.8333C141.977 62.8333 137.5 67.3105 137.5 72.8333C137.5 78.3563 141.977 82.8333 147.5 82.8333Z" fill="white"/>
<path fill-rule="evenodd" clip-rule="evenodd" d="M0 50C0 22.3858 22.3858 0 50 0H170C197.614 0 220 22.3858 220 50V170C220 197.614 197.614 220 170 220H50C22.3858 220 0 197.614 0 170V50ZM35 97.1392C35 70.4923 35 57.169 38.146 52.6867C41.2919 48.2045 53.8198 43.9162 78.8742 35.3399L83.6495 33.7054C96.709 29.2351 103.239 27 110 27C116.761 27 123.291 29.2351 136.35 33.7052L141.126 35.3399L141.127 35.3403C166.181 43.9165 178.708 48.2046 181.854 52.6867C185 57.169 185 70.4923 185 97.1392V110.262C185 157.245 149.675 180.046 127.512 189.727L127.51 189.728C121.499 192.354 118.493 193.667 110 193.667C101.507 193.667 98.5008 192.354 92.4903 189.729L92.488 189.727C70.3247 180.046 35 157.245 35 110.262V97.1392ZM110 137.833C125.188 137.833 137.5 125.522 137.5 110.333C137.5 95.1455 125.188 82.8333 110 82.8333C94.8118 82.8333 82.5 95.1455 82.5 110.333C82.5 125.522 94.8118 137.833 110 137.833Z" fill="black"/>
<path d="M157.5 72.8333C157.5 78.3563 153.023 82.8333 147.5 82.8333C141.977 82.8333 137.5 78.3563 137.5 72.8333C137.5 67.3105 141.977 62.8333 147.5 62.8333C153.023 62.8333 157.5 67.3105 157.5 72.8333Z" fill="#FF0000"/>
</svg>
