<svg width="500" height="500" viewBox="0 0 500 500" fill="none" xmlns="http://www.w3.org/2000/svg">
<g clip-path="url(#clip0_9_15)">
<path fill-rule="evenodd" clip-rule="evenodd" d="M100 0C44.7715 0 0 44.7715 0 100V400C0 455.228 44.7715 500 100 500H400C455.228 500 500 455.228 500 400V100C500 44.7715 455.228 0 400 0H100ZM250 365C313.513 365 365 313.513 365 250C365 186.487 313.513 135 250 135C186.487 135 135 186.487 135 250C135 313.513 186.487 365 250 365Z" fill="url(#paint0_linear_9_15)"/>
<circle cx="250" cy="250" r="115" fill="url(#paint1_linear_9_15)"/>
<path d="M102.765 200.927C103.515 203.701 107.288 203.593 108.228 200.877C123.238 157.55 157.55 123.238 200.877 108.228C203.593 107.288 203.701 103.515 200.927 102.765C194.257 100.962 187.241 100 180 100C135.817 100 100 135.817 100 180C100 187.241 100.962 194.257 102.765 200.927Z" fill="url(#paint2_linear_9_15)"/>
</g>
<defs>
<linearGradient id="paint0_linear_9_15" x1="250" y1="500" x2="250" y2="0" gradientUnits="userSpaceOnUse">
<stop stop-color="#151515"/>
<stop offset="1" stop-color="#414141"/>
</linearGradient>
<linearGradient id="paint1_linear_9_15" x1="250" y1="135" x2="250" y2="365" gradientUnits="userSpaceOnUse">
<stop stop-color="#999999"/>
<stop offset="1" stop-color="white"/>
</linearGradient>
<linearGradient id="paint2_linear_9_15" x1="154.688" y1="100" x2="154.688" y2="209.377" gradientUnits="userSpaceOnUse">
<stop stop-color="#97FFDA"/>
<stop offset="1" stop-color="#0090CD"/>
</linearGradient>
<clipPath id="clip0_9_15">
<rect width="500" height="500" rx="100" fill="white"/>
</clipPath>
</defs>
</svg>
