<svg width="195" height="205" viewBox="0 0 195 205" fill="none" xmlns="http://www.w3.org/2000/svg">
<path fill-rule="evenodd" clip-rule="evenodd" d="M115.608 1.56046C111.812 3.57628e-07 107 0 97.375 0C87.7502 0 82.9378 3.57628e-07 79.1423 1.56046C74.0808 3.64111 70.0596 7.63195 67.9632 12.655C67.0062 14.948 66.6316 17.6146 66.4851 21.5044C66.2697 27.2207 63.3159 32.5119 58.3242 35.372C53.3326 38.2321 47.2385 38.1253 42.1427 35.4523C38.6751 33.6333 36.1608 32.6219 33.6814 32.298C28.2499 31.5882 22.7568 33.049 18.4106 36.3588C15.1509 38.8411 12.7447 42.9772 7.93245 51.2493C3.12018 59.5214 0.714094 63.6574 0.177814 67.7003C-0.537328 73.0907 0.934571 78.5423 4.26961 82.8559C5.79184 84.8249 7.93112 86.4793 11.2514 88.5498C16.1326 91.594 19.2733 96.7795 19.2729 102.5C19.2726 108.221 16.132 113.405 11.2514 116.448C7.93061 118.52 5.79092 120.175 4.26859 122.144C0.933547 126.457 -0.53825 131.908 0.17679 137.299C0.71307 141.341 3.11926 145.478 7.93143 153.75C12.7437 162.022 15.1499 166.159 18.4096 168.64C22.7558 171.95 28.2489 173.411 33.6803 172.701C36.1597 172.377 38.6737 171.366 42.1411 169.547C47.2373 166.874 53.3317 166.767 58.3237 169.627C63.3157 172.488 66.2696 177.779 66.4851 183.497C66.6316 187.385 67.0062 190.052 67.9632 192.345C70.0596 197.368 74.0808 201.359 79.1423 203.44C82.9378 205 87.7502 205 97.375 205C107 205 111.812 205 115.608 203.44C120.669 201.359 124.69 197.368 126.786 192.345C127.744 190.052 128.119 187.385 128.265 183.495C128.481 177.779 131.434 172.488 136.425 169.627C141.417 166.766 147.512 166.874 152.608 169.547C156.076 171.366 158.589 172.376 161.068 172.7C166.5 173.411 171.993 171.95 176.339 168.64C179.599 166.158 182.005 162.022 186.818 153.749C191.63 145.477 194.036 141.341 194.573 137.299C195.287 131.908 193.815 126.456 190.481 122.143C188.958 120.174 186.819 118.519 183.498 116.448C178.618 113.405 175.477 108.219 175.477 102.499C175.477 96.7784 178.618 91.595 183.498 88.5518C186.82 86.4803 188.959 84.8259 190.482 82.8559C193.816 78.543 195.288 73.0914 194.574 67.7009C194.037 63.6581 191.631 59.5221 186.819 51.25C182.006 42.9779 179.6 38.8419 176.34 36.3595C171.994 33.0497 166.501 31.589 161.069 32.2987C158.59 32.6226 156.076 33.6339 152.609 35.4527C147.513 38.1258 141.418 38.2327 136.426 35.3723C131.435 32.5121 128.481 27.2205 128.264 21.5039C128.118 17.6144 127.744 14.9479 126.786 12.655C124.69 7.63195 120.669 3.64111 115.608 1.56046ZM97.375 133.25C114.487 133.25 128.359 119.483 128.359 102.5C128.359 85.5168 114.487 71.75 97.375 71.75C80.2626 71.75 66.3909 85.5168 66.3909 102.5C66.3909 119.483 80.2626 133.25 97.375 133.25Z" fill="white"/>
</svg>
